<svg width="78" height="37" viewBox="0 0 78 37" fill="none" xmlns="http://www.w3.org/2000/svg">
<g clip-path="url(#clip0_46_41)">
<mask id="mask0_46_41" style="mask-type:luminance" maskUnits="userSpaceOnUse" x="0" y="0" width="78" height="38">
<path d="M0.290283 2.79883C0.290283 1.26162 1.9208 0.00390625 3.91366 0.00390625H73.9656C75.9585 0.00390625 77.589 1.26162 77.589 2.79883V34.4746C77.589 36.0118 75.9585 37.2695 73.9656 37.2695H3.91366C1.9208 37.2695 0.290283 36.0118 0.290283 34.4746V2.79883V2.79883Z" fill="white"/>
</mask>
<g mask="url(#mask0_46_41)">
<path d="M0.290283 2.79883C0.290283 1.26162 1.9208 0.00390625 3.91366 0.00390625H73.9656C75.9585 0.00390625 77.589 1.26162 77.589 2.79883V34.4746C77.589 36.0118 75.9585 37.2695 73.9656 37.2695H3.91366C1.9208 37.2695 0.290283 36.0118 0.290283 34.4746V2.79883Z" fill="#246EA9"/>
</g>
<mask id="mask1_46_41" style="mask-type:luminance" maskUnits="userSpaceOnUse" x="16" y="20" width="61" height="10">
<path d="M76.7435 22.9685H72.8785C72.5162 22.9685 72.2143 22.9685 72.0331 23.1082C71.7915 23.2014 71.7311 23.3877 71.7311 23.6206C71.7311 23.9001 71.9123 24.0399 72.2143 24.133C72.4558 24.1796 72.6974 24.2262 72.9993 24.2262H74.1467C75.2941 24.2728 76.0792 24.4125 76.5623 24.7852C76.6227 24.8317 76.6831 24.8783 76.7435 24.9715V22.9685V22.9685ZM76.7435 27.4869C76.2 28.0925 75.2337 28.372 73.8448 28.372H69.7383V26.8814H73.8448C74.2675 26.8814 74.5091 26.8348 74.6902 26.695C74.811 26.6019 74.9318 26.4621 74.9318 26.2292C74.9318 26.0429 74.811 25.8566 74.6902 25.7634C74.5091 25.6702 74.3279 25.6236 73.9656 25.6236C71.9727 25.5771 69.4967 25.6702 69.4967 23.4809C69.4967 22.5026 70.3422 21.4313 72.5162 21.4313H76.7435V20.0804H72.8182C71.6104 20.0804 70.7649 20.3133 70.161 20.6394V20.0804H64.3636C63.4578 20.0804 62.3708 20.2667 61.8272 20.6394V20.0804H51.4402V20.6394C50.5948 20.1735 49.2058 20.0804 48.6019 20.0804H41.7175V20.6394C41.0532 20.1735 39.6039 20.0804 38.698 20.0804H31.0889L29.3376 21.6176L27.7071 20.1735H16.2331V29.7229H27.4656L29.2773 28.2322L30.9682 29.7229H37.913V27.4869H38.5773C39.4831 27.4869 40.5701 27.4869 41.5363 27.1609V29.7229H47.2734V27.254H47.5753C47.9376 27.254 47.9376 27.254 47.9376 27.5335V29.7229H65.2695C66.3565 29.7229 67.5039 29.49 68.1682 29.1173V29.7229H73.6636C74.811 29.7229 75.898 29.5831 76.8039 29.3036V27.4869H76.7435ZM68.2285 24.7386C68.6513 25.0647 68.8928 25.4839 68.8928 26.1826C68.8928 27.6733 67.685 28.3254 65.5714 28.3254H61.4045V26.8814H65.511C65.9337 26.8814 66.1753 26.8348 66.3565 26.695C66.4772 26.6019 66.598 26.4621 66.598 26.2292C66.598 26.0429 66.4772 25.8566 66.3565 25.7634C66.1753 25.6702 65.9941 25.6236 65.5714 25.6236C63.5785 25.5771 61.1026 25.6702 61.1026 23.4809C61.1026 22.5026 61.8876 21.4313 64.1221 21.4313H68.3493V22.8753H64.4844C64.0617 22.8753 63.8201 22.8753 63.6389 23.015C63.3974 23.1082 63.337 23.2945 63.337 23.5275C63.337 23.8069 63.5182 23.9467 63.8201 24.0399C64.0617 24.0864 64.3032 24.133 64.6656 24.133H65.813C67.0208 24.2262 67.7454 24.3659 68.2285 24.7386ZM49.085 24.3193C48.7831 24.4591 48.4208 24.4591 48.0584 24.4591H45.4617V22.9219H48.0584C48.4208 22.9219 48.8435 22.9219 49.085 23.0616C49.387 23.1548 49.5078 23.3877 49.5078 23.6672C49.5682 23.9467 49.387 24.1796 49.085 24.3193ZM50.4136 25.1578C50.8967 25.2976 51.2591 25.5305 51.4402 25.7168C51.7422 26.0429 51.8026 26.369 51.8026 26.9745V28.3254H49.6889V27.4869C49.6889 27.0677 49.7493 26.4621 49.3266 26.136C49.0247 25.9031 48.5415 25.81 47.7565 25.81H45.4617V28.3254H43.348V21.5244H48.2396C49.3266 21.5244 50.1117 21.571 50.7759 21.8505C51.4402 22.1766 51.863 22.5958 51.863 23.3877C51.863 24.4591 50.9571 25.0181 50.4136 25.1578ZM53.0708 21.5244H60.1363V22.9685H55.1844V24.2262H60.0156V25.6236H55.1844V26.9745H60.1363V28.4186H53.0708V21.5244ZM38.7584 24.692H35.9805V22.9685H38.7584C39.5435 22.9685 40.0266 23.2014 40.0266 23.8069C40.087 24.3659 39.5435 24.692 38.7584 24.692ZM33.8669 27.7664L30.6058 24.9715L33.8669 22.2697V27.7664ZM25.4727 26.9279H20.2792V25.5771H24.9292V24.1796H20.2792V22.9219H25.5935L27.8883 24.9249L25.4727 26.9279ZM42.3214 23.7604C42.3214 25.6702 40.5097 26.0429 38.6376 26.0429H35.9805V28.3254H31.874L29.2773 26.0429L26.5597 28.3254H18.1656V21.5244H26.6805L29.2773 23.7604L31.9948 21.5244H38.7584C40.4493 21.5244 42.3214 21.8971 42.3214 23.7604Z" fill="white"/>
</mask>
<g mask="url(#mask1_46_41)">
<path d="M79.763 17.8444H13.2136V32.0519H79.763V17.8444Z" fill="#FFFFFE"/>
</g>
<mask id="mask2_46_41" style="mask-type:luminance" maskUnits="userSpaceOnUse" x="1" y="8" width="73" height="10">
<path d="M8.02013 13.6054L6.57078 10.8571L5.12143 13.6054H8.02013ZM40.0266 12.534C39.7247 12.6738 39.3623 12.6738 39 12.6738H36.4032V11.1366H39C39.3623 11.1366 39.7851 11.1366 40.0266 11.2763C40.3286 11.3695 40.4494 11.6024 40.4494 11.8819C40.4494 12.208 40.2682 12.4409 40.0266 12.534ZM58.4455 13.6054L56.9961 10.8571L55.5468 13.6054H58.4455ZM24.1442 16.5867H21.9701V11.2297L18.8903 16.5867H17.0182L13.9383 11.2297V16.5867H9.65065L8.8052 15.0495H4.39676L3.5513 16.5867H1.2565L5.06104 9.73912H8.2013L11.8247 16.214V9.73912H15.2669L18.0448 14.3973L20.5812 9.73912H24.0838V16.5867H24.1442ZM32.7799 16.5867H25.7143V9.73912H32.7799V11.1832H27.8279V12.3943H32.6591V13.7918H27.8279V15.1426H32.7799V16.5867ZM42.8045 11.5558C42.8045 12.6272 41.8383 13.2328 41.2948 13.3725C41.7779 13.5123 42.1403 13.7452 42.3214 13.9315C42.6234 14.2576 42.6838 14.5837 42.6838 15.1892V16.5401H40.5701V15.655C40.5701 15.2358 40.6305 14.6302 40.2078 14.3042C39.9058 14.0713 39.4227 14.0247 38.6377 14.0247H36.3429V16.4935H34.2292V9.73912H39.1208C40.2078 9.73912 40.9929 9.78571 41.7175 10.0652C42.3818 10.3447 42.8045 10.8105 42.8045 11.5558ZM44.0123 16.5867H46.1864V9.73912H44.0123V16.5867ZM71.3084 16.5867H68.289L64.2429 11.4627V16.5867H59.8948L59.0493 15.0495H54.7013L53.9162 16.5867H51.4403C50.4136 16.5867 49.0851 16.4004 48.3604 15.8414C47.6357 15.2358 47.213 14.4905 47.213 13.2328C47.213 12.208 47.4545 11.2763 48.3604 10.5776C49.0247 10.0186 50.1117 9.78571 51.561 9.78571H53.6143V11.2297H51.6214C50.8364 11.2297 50.4136 11.3229 49.9909 11.649C49.6286 11.9285 49.387 12.4875 49.387 13.1862C49.387 13.9315 49.5682 14.4439 49.9909 14.8166C50.2929 15.0961 50.8968 15.1892 51.4403 15.1892H52.4065L55.426 9.78571H58.6266L62.1896 16.2606V9.73912H65.4506L69.1948 14.4905V9.73912H71.3688V16.5867H71.3084ZM1.19611 17.9376H4.81948L5.66494 16.4004H7.47662L8.26169 17.9376H15.4481V16.773L16.1123 17.9376H19.7961L20.4 16.773V17.9376H38.1545V15.4221H38.5169C38.7584 15.4221 38.8188 15.4687 38.8188 15.7482V17.9376H47.9981V17.332C48.7227 17.6581 49.8701 17.9376 51.3799 17.9376H55.2448L56.0903 16.4004H57.9019L58.687 17.9376H66.1149V16.4935L67.2623 17.9376H73.2409V8.38824H67.3227V9.50621L66.4773 8.38824H60.4383V9.50621L59.6532 8.38824H51.5006C50.1117 8.38824 48.9039 8.52799 47.9377 8.94723V8.38824H42.3214V8.94723C41.7175 8.52799 40.8721 8.38824 39.9058 8.38824H19.313L17.924 10.8571L16.5351 8.38824H10.013V9.50621L9.28831 8.38824H3.73247L1.19611 12.9067V17.9376Z" fill="white"/>
</mask>
<g mask="url(#mask2_46_41)">
<path d="M76.2 6.05914H-1.82336V20.2667H76.2V6.05914Z" fill="#FFFFFE"/>
</g>
<path d="M46.1864 9.73914H44.0123V16.5867H46.1864V9.73914Z" fill="#246EA9"/>
</g>
<defs>
<clipPath id="clip0_46_41">
<rect width="78" height="37" fill="white"/>
</clipPath>
</defs>
</svg>
