<svg width="60" height="37" viewBox="0 0 60 37" fill="none" xmlns="http://www.w3.org/2000/svg">
<g clip-path="url(#clip0_46_62)">
<path d="M18.75 37C29.1053 37 37.5 28.7173 37.5 18.5C37.5 8.28273 29.1053 0 18.75 0C8.39466 0 0 8.28273 0 18.5C0 28.7173 8.39466 37 18.75 37Z" fill="#F93232"/>
<path d="M41.25 0C37.0387 0 33.165 1.3875 30.0375 3.7H30V3.7259C29.2575 4.2772 28.575 4.8988 27.9244 5.55H32.0756C32.6531 6.12905 33.1856 6.7488 33.6787 7.4H26.3062C25.8525 7.99015 25.4362 8.6062 25.0556 9.25H34.9256C35.2781 9.8494 35.61 10.4599 35.8969 11.1H24.1013C23.8331 11.7013 23.5969 12.3173 23.3944 12.95H36.6019C36.7969 13.5531 36.9506 14.1729 37.0856 14.8H22.905C22.7794 15.4068 22.6744 16.021 22.6106 16.65H37.3875C37.4606 17.2568 37.5 17.8729 37.5 18.5H22.5C22.5 19.1272 22.5506 19.7395 22.6125 20.35H37.3912C37.32 20.9772 37.2169 21.5932 37.0875 22.2H22.9069C23.0363 22.8309 23.2031 23.4451 23.3962 24.05H36.6037C36.4012 24.6827 36.165 25.2988 35.8969 25.9H24.1013C24.3844 26.5364 24.7031 27.1543 25.0556 27.75H34.9256C34.5469 28.3938 34.125 29.0099 33.6713 29.6H26.3062C26.805 30.2512 27.3431 30.871 27.9225 31.45H32.0756C31.4231 32.1031 30.7425 32.7228 30 33.2741C33.135 35.6033 37.0219 37 41.25 37C51.6056 37 60 28.7157 60 18.5C60 8.2843 51.6056 0 41.25 0Z" fill="#FED049"/>
</g>
<defs>
<clipPath id="clip0_46_62">
<rect width="60" height="37" fill="white"/>
</clipPath>
</defs>
</svg>
