<svg width="57" height="25" viewBox="0 0 57 25" fill="none" xmlns="http://www.w3.org/2000/svg">
<path d="M59.9625 8.00952H55.8188C55.575 8.00952 55.3313 8.27447 55.2094 8.53941L53.5032 20.197C53.5032 20.462 53.625 20.5944 53.8688 20.5944H56.0625C56.3063 20.5944 56.4282 20.462 56.4282 20.197L56.9157 16.8852C56.9157 16.6203 57.1594 16.3553 57.525 16.3553H58.8657C61.6688 16.3553 63.2532 14.8981 63.6188 11.9837C63.8625 10.7915 63.6188 9.73167 63.1313 9.0693C62.4 8.40694 61.3032 8.00952 59.9625 8.00952ZM60.45 12.3811C60.2063 13.9708 59.1094 13.9708 58.0125 13.9708H57.2813L57.7688 10.9239C57.7688 10.7914 57.8907 10.659 58.1344 10.659H58.3782C59.1094 10.659 59.8407 10.659 60.2063 11.1889C60.45 11.3213 60.45 11.7188 60.45 12.3811Z" fill="#139AD6"/>
<path d="M30.1032 8.00952H25.9594C25.7157 8.00952 25.4719 8.27447 25.35 8.53941L23.6438 20.197C23.6438 20.462 23.7657 20.5944 24.0094 20.5944H25.9594C26.2032 20.5944 26.4469 20.3295 26.5688 20.0645L27.0563 16.8852C27.0563 16.6203 27.3001 16.3553 27.6657 16.3553H29.0063C31.8094 16.3553 33.3938 14.8981 33.7594 11.9837C34.0032 10.7915 33.7594 9.73167 33.2719 9.0693C32.5407 8.40694 31.5657 8.00952 30.1032 8.00952ZM30.5907 12.3811C30.3469 13.9708 29.25 13.9708 28.1532 13.9708H27.5438L28.0313 10.9239C28.0313 10.7914 28.1532 10.659 28.3969 10.659H28.6407C29.3719 10.659 30.1032 10.659 30.4688 11.1889C30.5907 11.3213 30.7125 11.7188 30.5907 12.3811Z" fill="#263B80"/>
<path d="M42.6563 12.2486H40.7063C40.5844 12.2486 40.3407 12.3811 40.3407 12.5136L40.2188 13.176L40.0969 12.911C39.6094 12.2486 38.7563 11.9837 37.7813 11.9837C35.5875 11.9837 33.6375 13.8383 33.2719 16.3553C33.0282 17.68 33.3938 18.8723 34.0032 19.6671C34.6125 20.462 35.4657 20.7269 36.5625 20.7269C38.3907 20.7269 39.3657 19.5347 39.3657 19.5347L39.2438 20.197C39.2438 20.462 39.3657 20.5944 39.6094 20.5944H41.4375C41.6813 20.5944 41.925 20.3295 42.0469 20.0645L43.1438 12.6461C43.0219 12.5136 42.7782 12.2486 42.6563 12.2486ZM39.8532 16.4878C39.6094 17.68 38.7563 18.6073 37.5375 18.6073C36.9282 18.6073 36.4407 18.3424 36.1969 18.0775C35.9532 17.68 35.8313 17.1501 35.8313 16.4878C35.9532 15.2955 36.9282 14.3682 38.025 14.3682C38.6344 14.3682 39 14.6332 39.3657 14.8981C39.7313 15.2955 39.8532 15.9579 39.8532 16.4878Z" fill="#263B80"/>
<path d="M53.2594 12.2487H51.1875C50.9437 12.2487 50.8219 12.3811 50.7 12.5136L48.0188 17.0177L46.8 12.7785C46.6781 12.5136 46.5563 12.3811 46.1906 12.3811H44.2406C43.9969 12.3811 43.875 12.6461 43.875 12.911L46.0687 19.9321L43.9969 23.1114C43.875 23.3764 43.9969 23.7738 44.2406 23.7738H46.1906C46.4344 23.7738 46.5562 23.6413 46.6781 23.5088L53.3812 13.0435C53.7469 12.6461 53.5031 12.2487 53.2594 12.2487Z" fill="#263B80"/>
<path d="M14.625 4.03535C13.7719 2.97557 12.1875 2.44568 9.99375 2.44568H3.9C3.53438 2.44568 3.16875 2.8431 3.04688 3.24052L0.609375 20.5945C0.609375 20.9919 0.853125 21.2568 1.09687 21.2568H4.875L5.85 14.7657V15.0306C5.97188 14.6332 6.3375 14.2358 6.70312 14.2358H8.53125C12.0656 14.2358 14.7469 12.6461 15.6 8.27448C15.6 8.14201 15.6 8.00954 15.6 7.87707C15.4781 7.87707 15.4781 7.87707 15.6 7.87707C15.7219 6.15492 15.4781 5.09514 14.625 4.03535Z" fill="#263B80"/>
<path d="M15.4781 7.87708C15.4781 8.00955 15.4781 8.14202 15.4781 8.27449C14.625 12.7786 11.9438 14.2358 8.4094 14.2358H6.58127C6.21565 14.2358 5.85002 14.6332 5.72815 15.0306L4.5094 23.1114C4.5094 23.3764 4.63127 23.6413 4.9969 23.6413H8.16565C8.53127 23.6413 8.8969 23.3764 8.8969 22.979V22.8465L9.50627 18.7398V18.4749C9.50627 18.0775 9.8719 17.8125 10.2375 17.8125H10.725C13.7719 17.8125 16.2094 16.4878 16.8188 12.5136C17.0625 10.924 16.9406 9.46675 16.2094 8.53944C16.0875 8.27449 15.8438 8.00955 15.4781 7.87708Z" fill="#139AD6"/>
<path d="M14.625 7.47963C14.5031 7.47963 14.3812 7.34716 14.2594 7.34716C14.1375 7.34716 14.0156 7.34716 13.8937 7.21469C13.4062 7.08221 12.9187 7.08221 12.3094 7.08221H7.55623C7.43435 7.08221 7.31248 7.08221 7.1906 7.21469C6.94685 7.34716 6.82498 7.61211 6.82498 7.87705L5.84998 14.7656V15.0306C5.97185 14.6332 6.33748 14.2357 6.7031 14.2357H8.53123C12.0656 14.2357 14.7469 12.6461 15.6 8.27447C15.6 8.142 15.6 8.00952 15.7218 7.87705C15.4781 7.74458 15.3562 7.61211 15.1125 7.61211C14.7468 7.47963 14.7469 7.47963 14.625 7.47963Z" fill="#232C65"/>
</svg>
